<?xml version="1.0" encoding="UTF-8"?>
<!DOCTYPE svg PUBLIC "-//W3C//DTD SVG 1.1//EN" "http://www.w3.org/Graphics/SVG/1.1/DTD/svg11.dtd">
<!-- Creator: CorelDRAW X7 -->
<svg xmlns="http://www.w3.org/2000/svg" xml:space="preserve" width="170px" height="40px" version="1.1" style="shape-rendering:geometricPrecision; text-rendering:geometricPrecision; image-rendering:optimizeQuality; fill-rule:evenodd; clip-rule:evenodd"
viewBox="0 0 170 40"
 xmlns:xlink="http://www.w3.org/1999/xlink">
 <defs>
  <style type="text/css">
   <![CDATA[
    .fil0 {fill:#FFBB00}
    .fil1 {fill:white}
    .fil2 {fill:#FFBB00;fill-rule:nonzero}
   ]]>
  </style>
 </defs>
 <g id="Слой_x0020_1">
  <metadata id="CorelCorpID_0Corel-Layer"/>
  <g id="_130606367056">
   <path class="fil0" d="M36 40c3,0 4,-3 4,-6 -1,1 -2,3 -5,3 -5,0 -13,-5 -16,-8 -1,-2 0,0 -3,-3 -2,-2 -2,-2 -4,-5 -2,-3 -5,-8 -5,-11 0,-3 2,-5 5,-5 2,0 3,0 5,1 -3,-3 -14,-9 -16,-4 -3,5 3,14 6,17 5,8 19,21 29,21z"/>
   <path class="fil1" d="M11 11c4,-2 5,-2 10,1 9,6 15,18 9,18l-4 0c3,2 11,6 11,0 0,-3 -2,-7 -4,-10 -1,-1 -4,-4 -6,-6 0,0 -1,0 -1,-1 -3,-3 -15,-10 -15,-2z"/>
  </g>
  <path class="fil2" d="M48 10l0 20 2 0 4 -10c1,-2 2,-4 3,-6l0 0c0,2 -1,5 -1,9l0 7 3 0 0 -20 -3 0 -3 9c-1,2 -2,5 -3,7l0 0c0,-3 0,-5 0,-9l0 -7 -2 0zm14 0l0 20 3 0 0 -9 5 0 0 9 2 0 0 -20 -2 0 0 8 -5 0 0 -8 -3 0zm16 20l3 0 0 -18 3 0 0 -2 -9 0 0 2 3 0 0 18zm16 -12l-5 0 0 -6 5 0 0 -2 -8 0 0 20 9 0 0 -2 -6 0 0 -8 5 0 0 -2zm3 -8l0 20 2 0 0 -18 6 0 0 -2 -8 0zm10 20l3 0 0 -8c0,0 0,0 1,0 1,0 3,-1 4,-2 1,-1 2,-3 2,-5 0,-1 -1,-3 -2,-4 -1,-1 -3,-1 -4,-1 -2,0 -3,0 -4,0l0 20zm3 -18c0,0 0,0 1,0 2,0 3,1 3,4 0,2 -1,4 -4,4 0,0 0,0 0,0l0 -8zm15 12l1 6 2 0 -4 -20 -3 0 -5 20 3 0 1 -6 5 0zm-5 -2l1 -5c1,-1 1,-3 1,-5l0 0c1,2 1,4 1,5l1 5 -4 0zm12 -12l0 9c0,5 -1,8 -2,9 0,0 -1,0 -1,0l0 2c1,0 2,0 2,0 3,-2 3,-6 3,-11l0 -7 4 0 0 18 2 0 0 -20 -8 0zm11 11l0 2 7 0 0 -2 -7 0zm22 9l2 0 -1 -20 -3 0 -2 9c-1,3 -1,5 -1,7l-1 0c0,-2 0,-4 -1,-7l-3 -9 -2 0 -1 20 2 0 0 -9c0,-2 1,-5 1,-8l0 0c0,3 1,5 1,8l3 9 1 0 3 -10c0,-2 1,-4 1,-7l0 0c0,3 0,6 1,8l0 9z"/>
 </g>
</svg>
